<svg width="164" height="36" viewBox="0 0 164 36" fill="none" xmlns="http://www.w3.org/2000/svg">
<path d="M8 29V27.1667C8 24.7355 9.06235 22.4039 10.9533 20.6849C12.8443 18.9658 15.4091 18 18.0833 18C20.7576 18 23.3223 18.9658 25.2133 20.6849C27.1043 22.4039 28.1667 24.7355 28.1667 27.1667V29" stroke="black" stroke-width="2" stroke-linecap="square"/>
<path d="M18.084 18C19.5427 18 20.9416 17.4205 21.9731 16.3891C23.0045 15.3576 23.584 13.9587 23.584 12.5C23.584 11.0413 23.0045 9.64236 21.9731 8.61091C20.9416 7.57946 19.5427 7 18.084 7C16.6253 7 15.2263 7.57946 14.1949 8.61091C13.1634 9.64236 12.584 11.0413 12.584 12.5C12.584 13.9587 13.1634 15.3576 14.1949 16.3891C15.2263 17.4205 16.6253 18 18.084 18Z" stroke="black" stroke-width="2" stroke-linecap="round" stroke-linejoin="round"/>
<path d="M72 10.6797H91.16V21.9997C91.16 25.3134 88.4737 27.9997 85.16 27.9997H72V10.6797Z" stroke="black" stroke-width="2"/>
<path d="M76.9004 9.68V10.68H77.9004H85.2604H86.2604V9.68C86.2604 7.09531 84.1651 5 81.5804 5C78.9957 5 76.9004 7.09531 76.9004 9.68Z" stroke="black" stroke-width="2"/>
<circle cx="96" cy="4" r="3" fill="#D72E42"/>
<path d="M144.143 24.2857C148.64 24.2857 152.286 20.64 152.286 16.1429C152.286 11.6457 148.64 8 144.143 8C139.646 8 136 11.6457 136 16.1429C136 20.64 139.646 24.2857 144.143 24.2857Z" stroke="black" stroke-width="2" stroke-linecap="round" stroke-linejoin="round"/>
<path d="M155 27.0004L150.477 22.4766" stroke="black" stroke-width="2" stroke-linecap="square" stroke-linejoin="round"/>
</svg>
