<svg width="98" height="45" viewBox="0 0 98 45" fill="none" xmlns="http://www.w3.org/2000/svg">
<g id="logo_type" clip-path="url(#clip0_60_2373)">
<path id="Vector" d="M34.5395 13.41H31.6842V2.43H27.5395V0.09H38.5921V2.52H34.4474L34.5395 13.41ZM42.5526 7.38V13.32H39.6974V0.09H42.5526V5.13H47.8947V0.09H50.75V13.41H47.8947V7.38H42.5526ZM61.7105 2.43H54.5263V5.22H60.8816V7.56H54.5263V11.07H61.7105V13.41H51.9474V0.09H61.7105V2.43ZM8.47368 15.48H11.1447V28.8H8.28947L2.67105 19.26V28.8H0V15.48H2.94737L8.38158 24.75H8.47368V15.48ZM18.9737 15.12C20.8158 15.12 25.5132 15.93 25.5132 22.14C25.5132 28.35 20.7237 29.16 18.9737 29.16C17.2237 29.16 12.4342 28.35 12.4342 22.14C12.4342 15.93 17.1316 15.12 18.9737 15.12ZM18.9737 26.73C20.4474 26.73 22.6579 25.83 22.6579 22.05C22.6579 18.27 20.5395 17.37 18.9737 17.37C17.4079 17.37 15.2895 18.27 15.2895 22.05C15.2895 25.83 17.4079 26.73 18.9737 26.73ZM45.5921 28.8H42.7368V17.82H38.5921V15.48H49.7368V17.82H45.5921V28.8ZM53.6053 22.77V28.8H50.75V15.48H53.6053V20.52H58.8553V15.48H61.7105V28.8H58.8553V22.86H53.6053V22.77ZM26.7105 15.48H33.6184C37.2105 15.48 37.9474 18.09 37.9474 19.26C37.9474 20.7 37.1184 21.96 35.8289 22.41C36.9342 22.86 37.5789 23.31 37.5789 25.83C37.5789 27.81 37.5789 28.26 38.1316 28.44V28.8H35C34.8158 28.17 34.7237 27.54 34.7237 26.1C34.7237 24.3 34.6316 23.58 32.5132 23.58H29.5658V28.8H26.8026L26.7105 15.48ZM32.7895 21.33C34.2632 21.33 35 20.79 35 19.53C35 18.81 34.6316 17.82 32.9737 17.82H29.4737V21.33H32.7895ZM20.0789 44.55H17.2237V30.87H27.1711V33.3H20.0789V36.36H26.25V38.79H20.0789V44.55ZM28.4605 44.55H25.3289L30.3026 30.87H33.8026L38.7763 44.55H35.5526L34.6316 41.76H29.3816L28.4605 44.55ZM30.2105 39.42H33.8026L32.0526 34.02H31.9605L30.2105 39.42ZM47.6184 35.46C47.3421 34.65 46.9737 33.12 44.4868 33.12C43.1053 33.12 40.9868 34.02 40.9868 37.89C40.9868 40.32 42 42.57 44.4868 42.57C46.1447 42.57 47.25 41.67 47.6184 39.96H50.5658C50.0132 42.93 47.9868 45 44.4868 45C40.8026 45 38.1316 42.57 38.1316 37.8C38.1316 33.03 40.9868 30.6 44.5789 30.6C48.7237 30.6 50.4737 33.39 50.5658 35.46H47.6184ZM61.8026 33.3H54.4342V36.18H60.9737V38.61H54.4342V42.12H61.8026V44.55H51.7632V30.87H61.8026V33.3ZM71.1053 43.74V36.72C71.1053 33.57 68.4342 30.96 65.2105 30.96H64.5658V44.64H71.1053V43.74ZM98 43.74V32.04C98 14.4 83.2632 0 65.2105 0H64.8421H64.9342H64.5658V13.41H65.4868C76.0789 13.59 84.8289 22.05 84.9211 32.4V44.55H97.9079V43.74H98Z" fill="black"/>
<path id="Vector_2" d="M82.8954 44.1905V32.5805C82.8032 23.4005 75.2506 15.8405 65.948 15.4805H64.8427H64.9348H64.5664V28.8005H65.2111C69.6322 28.8005 73.1322 32.3105 73.1322 36.5405V44.4605H82.8954V44.1905Z" fill="black"/>
</g>
<defs>
<clipPath id="clip0_60_2373">
<rect width="98" height="45" fill="white"/>
</clipPath>
</defs>
</svg>
